<?xml version="1.0" standalone="no"?>
<!DOCTYPE svg PUBLIC "-//W3C//DTD SVG 20010904//EN"
 "http://www.w3.org/TR/2001/REC-SVG-20010904/DTD/svg10.dtd">
<svg version="1.0" xmlns="http://www.w3.org/2000/svg"
 width="1280.000000pt" height="1202.000000pt" viewBox="0 0 1280.000000 1202.000000"
 preserveAspectRatio="xMidYMid meet">
<metadata>
Created by potrace 1.15, written by Peter Selinger 2001-2017
</metadata>
<g transform="translate(0.000000,1202.000000) scale(0.100000,-0.100000)"
fill="#ffeb3b" stroke="none">
<path d="M3748 12001 c-15 -12 -42 -49 -59 -81 -71 -134 -340 -361 -769 -652
-691 -468 -1996 -1207 -2702 -1529 -157 -71 -194 -95 -209 -131 -17 -41 -4
-88 63 -233 133 -289 229 -570 329 -965 135 -536 221 -1084 233 -1500 6 -177
-6 -709 -20 -891 l-6 -86 453 -404 c911 -810 1184 -1058 1595 -1450 432 -412
677 -683 790 -875 86 -147 109 -155 374 -130 94 9 176 14 181 11 5 -4 9 -11 9
-18 0 -12 -168 -334 -673 -1287 -460 -869 -505 -947 -561 -981 -19 -12 -50
-19 -80 -19 l-49 0 5 143 c4 120 9 153 31 212 14 39 38 104 53 145 38 106 38
179 -3 251 -58 104 -163 155 -298 147 -131 -9 -267 -94 -328 -207 -112 -205
-115 -740 -7 -1020 97 -250 315 -421 572 -447 99 -10 293 25 379 67 155 77
560 762 1506 2544 134 253 248 464 253 469 6 6 81 2 191 -8 810 -77 1754 -325
2386 -626 l143 -69 118 40 c432 146 879 190 1952 190 795 0 1157 -17 1482 -72
124 -21 128 -21 165 -3 49 24 74 77 103 214 58 283 156 589 313 981 338 841
761 1651 1032 1974 103 123 121 168 91 239 -45 108 -2067 3219 -2746 4227
-145 214 -187 269 -219 287 -30 17 -105 31 -352 66 -685 98 -1365 237 -2344
482 -1219 305 -2233 614 -3046 928 -225 87 -289 100 -331 67z m520 -761 c577
-659 1352 -1744 1844 -2585 205 -350 369 -658 357 -670 -2 -2 -83 53 -179 121
-327 233 -634 415 -1033 613 -746 370 -1473 614 -2367 795 -652 132 -1231 201
-1805 215 l-269 6 331 177 c1291 691 2310 1349 2663 1720 l45 48 134 -138 c74
-75 199 -211 279 -302z m502 163 c1223 -406 3201 -904 4340 -1093 135 -22 251
-43 258 -45 24 -9 -42 -78 -347 -363 -354 -331 -401 -377 -1246 -1198 -662
-644 -763 -738 -822 -768 -41 -20 -87 -20 -118 0 -33 22 -92 119 -208 346
-512 994 -1541 2503 -2134 3130 -40 42 -73 82 -73 88 0 17 37 7 350 -97z
m5238 -1653 c1118 -1701 2022 -3091 2022 -3112 0 -5 -26 8 -57 29 -500 323
-920 517 -1535 707 -499 154 -1003 242 -1738 303 -160 13 -346 17 -848 19
-403 1 -647 5 -654 12 -16 16 70 108 513 548 1206 1195 1960 1895 2028 1882 8
-2 129 -176 269 -388z m-8538 -321 c231 -10 388 -25 680 -65 1383 -187 2679
-652 3800 -1363 242 -153 383 -262 364 -281 -11 -11 -233 -26 -604 -40 -648
-26 -1184 -106 -1875 -280 -896 -226 -1728 -536 -2587 -966 l-327 -163 -5 42
c-3 23 -8 168 -11 322 -11 535 -55 940 -156 1450 -86 430 -180 761 -340 1192
-29 79 -49 146 -45 150 21 21 668 22 1106 2z m4840 -2012 c77 -26 51 -93 -193
-512 -157 -269 -255 -403 -882 -1210 -771 -993 -1085 -1414 -1402 -1877 -212
-311 -224 -328 -234 -328 -5 0 -84 84 -177 188 -362 400 -1155 1146 -2062
1937 -291 253 -380 335 -380 350 0 35 768 416 1220 605 1040 434 2252 741
3275 830 346 30 772 39 835 17z m2355 -27 c1335 -78 2398 -412 3257 -1025 169
-122 312 -240 447 -371 l114 -110 -71 -106 c-406 -605 -877 -1572 -1145 -2353
-90 -262 -97 -277 -112 -265 -7 6 -54 95 -105 198 -585 1192 -1344 2250 -2204
3071 -375 358 -707 613 -1133 871 -84 50 -153 94 -153 96 0 8 942 3 1105 -6z
m-1305 -210 c171 -85 291 -154 455 -263 1034 -690 2126 -2001 2863 -3437 112
-219 280 -575 297 -629 l7 -24 -68 7 c-215 20 -350 27 -734 37 -596 15 -1362
2 -1755 -31 -183 -16 -407 -47 -540 -76 -179 -38 -202 -40 -208 -18 -9 30 -25
266 -48 684 -36 683 -89 1393 -144 1910 -66 618 -193 1300 -327 1753 -22 75
-37 144 -34 153 11 29 82 9 236 -66z m-466 -202 c177 -579 334 -1691 430
-3048 31 -440 69 -1169 61 -1178 -1 -1 -87 30 -191 69 -717 269 -1358 429
-1999 499 -110 12 -204 26 -209 30 -5 5 -5 26 -1 47 6 33 548 1121 1257 2523
500 988 595 1170 608 1170 5 0 25 -51 44 -112z m-478 -110 c-88 -192 -1105
-2212 -1659 -3293 -613 -1199 -1278 -2423 -1559 -2874 -116 -186 -242 -372
-266 -394 -41 -37 -237 -47 -333 -17 -210 66 -309 281 -309 669 0 255 33 399
102 441 32 19 108 28 108 12 0 -4 -20 -62 -44 -128 -64 -172 -80 -260 -74
-413 6 -154 26 -209 100 -276 63 -57 141 -86 244 -93 98 -5 138 11 227 97 111
106 162 193 650 1116 1062 2011 2811 5225 2842 5225 2 0 -11 -33 -29 -72z
m-1382 -1919 c-14 -29 -203 -377 -419 -774 -215 -396 -404 -744 -420 -772
l-28 -53 -149 0 c-81 0 -148 3 -148 7 0 30 147 251 435 653 429 600 738 1010
752 996 2 -2 -8 -28 -23 -57z"/>
</g>
</svg>
